<svg xmlns="http://www.w3.org/2000/svg" viewBox="0 0 512 512" role="img" aria-labelledby="title desc">
  <title id="title">Cururu</title>
  <desc id="desc">A bright green frog with alert eyes and a confident smile.</desc>
  <defs>
    <linearGradient id="skin" x1="0" y1="0" x2="1" y2="1">
      <stop offset="0" stop-color="#d8fa5c"/>
      <stop offset="1" stop-color="#75d978"/>
    </linearGradient>
  </defs>
  <rect width="512" height="512" rx="116" fill="#101713"/>
  <path d="M98 276c0-91 70-154 158-154s158 63 158 154v62c0 57-46 103-103 103h-14c-18 0-34-9-41-24-7 15-23 24-41 24h-14c-57 0-103-46-103-103z" fill="url(#skin)"/>
  <path d="M127 213c-20-14-31-38-25-61 6-24 28-39 52-36 23 3 41 22 41 46v19m190 32c20-14 31-38 25-61-6-24-28-39-52-36-23 3-41 22-41 46v19" fill="url(#skin)" stroke="#101713" stroke-width="17" stroke-linecap="round" stroke-linejoin="round"/>
  <ellipse cx="188" cy="205" rx="38" ry="45" fill="#f5ffe9"/>
  <ellipse cx="324" cy="205" rx="38" ry="45" fill="#f5ffe9"/>
  <ellipse cx="197" cy="213" rx="15" ry="22" fill="#101713"/>
  <ellipse cx="315" cy="213" rx="15" ry="22" fill="#101713"/>
  <circle cx="202" cy="205" r="5" fill="#fff"/>
  <circle cx="320" cy="205" r="5" fill="#fff"/>
  <path d="M146 282c20 12 41 18 64 18m92 0c23 0 44-6 64-18" fill="none" stroke="#4e9e52" stroke-width="10" stroke-linecap="round"/>
  <path d="M162 328c24 32 56 48 94 48s70-16 94-48" fill="none" stroke="#101713" stroke-width="14" stroke-linecap="round"/>
  <path d="M193 349c18 11 39 16 63 16s45-5 63-16" fill="none" stroke="#f5ffe9" stroke-width="7" stroke-linecap="round" opacity=".9"/>
  <ellipse cx="132" cy="304" rx="17" ry="10" fill="#ff9d86" opacity=".65"/>
  <ellipse cx="380" cy="304" rx="17" ry="10" fill="#ff9d86" opacity=".65"/>
  <path d="M115 397c20 14 44 22 70 22m202-22c-20 14-44 22-70 22" fill="none" stroke="#d8fa5c" stroke-width="11" stroke-linecap="round" opacity=".8"/>
</svg>
